<svg xmlns="http://www.w3.org/2000/svg" width="19" height="19" fill="none" xmlns:v="https://vecta.io/nano"><path d="M17.281 0H1.719A1.72 1.72 0 0 0 0 1.719v15.562A1.72 1.72 0 0 0 1.719 19h15.562A1.72 1.72 0 0 0 19 17.281V1.719A1.72 1.72 0 0 0 17.281 0zM5.879 16.406a.5.5 0 0 1-.5.5H3.25a.5.5 0 0 1-.5-.5V7.481a.5.5 0 0 1 .5-.5h2.129a.5.5 0 0 1 .5.5v8.925zM4.315 6.139c-1.117 0-2.023-.906-2.023-2.023s.906-2.023 2.023-2.023S6.337 3 6.337 4.117s-.906 2.023-2.023 2.023zm12.691 10.307a.46.46 0 0 1-.46.46h-2.285a.46.46 0 0 1-.46-.46V12.26c0-.624.183-2.737-1.632-2.737-1.408 0-1.694 1.446-1.751 2.094v4.829a.46.46 0 0 1-.46.46h-2.21a.46.46 0 0 1-.46-.46V7.44a.46.46 0 0 1 .46-.46h2.21a.46.46 0 0 1 .46.46v.779c.522-.784 1.298-1.388 2.95-1.388 3.658 0 3.637 3.418 3.637 5.296v4.32z" fill="#1976d2"/></svg>