<svg xmlns="http://www.w3.org/2000/svg" width="19" height="16" fill="none" xmlns:v="https://vecta.io/nano"><path d="M5.975 15.441c7.17 0 11.091-5.94 11.091-11.091a11.24 11.24 0 0 0-.011-.504A7.93 7.93 0 0 0 19 1.828c-.698.311-1.45.519-2.239.614A3.91 3.91 0 0 0 18.476.285 7.82 7.82 0 0 1 16 1.232C15.289.474 14.276 0 13.155 0a3.9 3.9 0 0 0-3.898 3.898c0 .306.034.603.101.889-3.24-.163-6.113-1.714-8.035-4.073a3.89 3.89 0 0 0-.528 1.959c0 1.352.688 2.546 1.735 3.245A3.87 3.87 0 0 1 .764 5.43c-.001.016-.001.032-.001.05a3.9 3.9 0 0 0 3.127 3.821 3.91 3.91 0 0 1-1.028.137c-.251 0-.495-.025-.733-.07.496 1.549 1.935 2.676 3.642 2.708A7.82 7.82 0 0 1 .93 13.744a7.96 7.96 0 0 1-.93-.054c1.725 1.106 3.774 1.751 5.975 1.751z" fill="#1976d2"/></svg>